<?xml version="1.0" standalone="no"?>
<!DOCTYPE svg PUBLIC "-//W3C//DTD SVG 20010904//EN"
 "http://www.w3.org/TR/2001/REC-SVG-20010904/DTD/svg10.dtd">
<svg version="1.0" xmlns="http://www.w3.org/2000/svg"
 width="700.000000pt" height="700.000000pt" viewBox="0 0 700.000000 700.000000"
 preserveAspectRatio="xMidYMid meet">
<metadata>
Created by potrace 1.14, written by Peter Selinger 2001-2017
</metadata>
<g transform="translate(0.000000,700.000000) scale(0.100000,-0.100000)"
fill="#000000" stroke="none">
<path d="M3400 6839 c-47 -28 -103 -61 -125 -74 -22 -12 -69 -40 -105 -60 -36
-21 -83 -48 -105 -61 -22 -12 -128 -73 -235 -135 -107 -62 -233 -135 -280
-162 -47 -26 -101 -58 -120 -69 -19 -11 -156 -90 -305 -176 -148 -85 -308
-178 -355 -205 -47 -27 -103 -60 -125 -72 -22 -13 -274 -158 -560 -323 l-520
-299 -3 -1701 -2 -1701 86 -50 c47 -28 88 -51 90 -51 3 0 17 -8 32 -19 15 -10
241 -141 502 -292 261 -150 689 -396 950 -547 454 -262 540 -312 585 -336 11
-6 31 -19 45 -27 14 -9 164 -96 334 -194 l310 -178 45 25 c25 13 138 78 251
143 113 65 318 183 455 262 138 79 257 148 265 153 8 5 94 54 190 110 96 56
182 106 190 111 8 5 130 75 270 156 140 80 311 178 380 218 69 40 260 150 425
245 165 95 314 181 332 191 17 10 49 29 70 42 21 13 45 26 54 29 14 6 16 165
16 1702 0 1536 -2 1697 -16 1710 -9 7 -43 28 -76 46 -33 18 -76 43 -95 55 -19
12 -60 35 -90 52 -30 17 -111 63 -180 103 -118 69 -349 202 -415 240 -16 9
-91 52 -165 95 -74 43 -470 271 -880 507 -410 236 -767 443 -793 459 -27 16
-50 29 -51 29 -2 0 -41 22 -87 50 -46 27 -88 50 -94 50 -5 -1 -48 -23 -95 -51z"/>
</g>
</svg>
