<?xml version="1.0" encoding="utf-8"?>
<!-- Generator: Adobe Illustrator 19.2.0, SVG Export Plug-In . SVG Version: 6.00 Build 0)  -->
<svg version="1.1" id="Layer_1" xmlns="http://www.w3.org/2000/svg" xmlns:xlink="http://www.w3.org/1999/xlink" x="0px" y="0px" viewBox="0 0 288 288" style="enable-background:new 0 0 288 288;" xml:space="preserve">
  <style type="text/css">
	.st0{fill:#FFFFFF;}
	.st1{fill:#E2231A;}
	.st2{fill:#6A747C;}
</style>
  <g>
    <g>
      <g>
        <g>
          <g>
            <g>
              <path class="st0" d="M145.2,47.7c-52.6,0-95.4,42.8-95.4,95.4c0,26.5,10.6,51.1,29.8,69.3l1,1l1.1-1c2.8-2.6,5.7-4.9,8.7-7.1
							c14.6,12.9,33.8,20.8,54.8,20.8c21,0,40.2-7.9,54.8-20.8c3,2.2,5.9,4.5,8.7,7.1l1.1,1l1-1c19.3-18.2,29.9-42.9,29.9-69.3
							C240.6,90.5,197.8,47.7,145.2,47.7z" />
              <g>
                <path class="st1" d="M121.3,89.8c-2.2,0-4,1.5-4,3.4c0,1.9,1.8,3.4,4,3.4c2.2,0,4-1.5,4-3.4
								C125.3,91.3,123.5,89.8,121.3,89.8 M121.3,98.8c-3.5,0-6.3-2.5-6.3-5.7c0-3.2,2.8-5.7,6.3-5.7c3.5,0,6.3,2.5,6.3,5.7
								C127.6,96.4,124.8,98.8,121.3,98.8" />
                <path class="st1" d="M143.8,98.8c-1.3,0-2.3-1-2.3-2.3l0-4.7c0-1.1-1-2-2.2-2c-1.2,0-2.2,0.9-2.2,2l0,7c-1.3,0-2.3-1-2.3-2.3
								l0-4.8c0-1.1-1-2-2.2-2c-1.2,0-2.2,0.9-2.2,2l0,4.7c0,1.3-1,2.3-2.3,2.3l0-7c0-2.4,2-4.3,4.5-4.3c1.3,0,2.5,0.5,3.3,1.4
								c0.8-0.9,2-1.4,3.3-1.4c2.5,0,4.5,1.9,4.5,4.3L143.8,98.8z" />
                <path class="st1" d="M151.2,98.8c-0.6,0-1.2,0-1.7-0.2c-1.2-0.3-1.9-1.6-1.6-2.8c0-0.1,0.1-0.3,0.1-0.4l0,0
								c0.6,0.7,1.7,1.1,3.1,1.1c2.1,0,3.7-1.5,3.7-3.3c0-1.9-1.6-3.5-3.7-3.5c-2,0-4,1.1-4,3.5l0,7.4c0,1.2-1,2.2-2.3,2.2l0-9.6
								c0-3.3,2.6-5.8,6.2-5.8c1.6,0,3.1,0.6,4.2,1.6c1.1,1.1,1.8,2.5,1.8,4.1C157.2,96.4,154.6,98.8,151.2,98.8" />
                <path class="st1" d="M167.5,85.3l-4.9,0l0,13.5h-0.1c-1.2,0-2.2-1-2.2-2.3l0-11.2l-4.9,0c-1.2,0-2.2-1-2.2-2.3l16.6,0
								C169.7,84.3,168.7,85.3,167.5,85.3" />
                <path class="st1" d="M182,85.4l-3.2,7.1l6.1,0l-3.3-7.2L182,85.4z M187,97.4l-1.2-2.6l-8.1,0l-1.2,2.7
								c-0.6,1.1-2.1,1.4-3.2,1.4l6.6-14.5c0.4-0.8,1-1.3,1.8-1.3c0.8,0,1.5,0.5,1.8,1.3l6.5,14.3C188.9,98.8,187.5,98.5,187,97.4" />
                <path class="st1" d="M112.4,87.3c-1.2-1.3-3-2.2-5-2.2c-3.5,0-6.4,2.6-6.4,5.7c0,3.2,2.9,5.8,6.4,5.8c1.7,0,3.3-0.6,4.5-1.7
								c0.8-0.7,2.1-0.6,2.9,0c-0.6,1-1.5,1.8-2.5,2.4c-1.5,0.9-3.1,1.4-4.9,1.4c-4.8,0-8.7-3.6-8.7-8c0-4.4,3.9-8,8.7-8
								c3.4,0,6.5,1.9,7.9,4.7C114.4,88.2,113.2,88.1,112.4,87.3" />
                <path class="st1" d="M191.4,97c0,0-0.1,0-0.1,0c0,0,0.1,0.1,0.3,0.4l0,0c-0.1,0.1-0.2,0.1-0.3,0c-0.3-0.3-0.3-0.3-0.3-0.3
								h-0.3V97c0-0.1,0.1-0.2,0.2-0.2h0.1c0.1,0,0.2,0,0.2,0c0,0,0.1,0,0.1-0.1c0,0,0-0.1-0.3-0.1l-0.4,0v0.8
								c0,0.1-0.1,0.2-0.2,0.2h-0.1v-1c0-0.1,0.1-0.2,0.2-0.2h0.5c0.5,0,0.6,0.3,0.6,0.4C191.6,96.8,191.5,96.9,191.4,97
								 M190.9,96.1c-0.5,0-0.9,0.4-0.9,0.8c0,0.5,0.4,0.8,0.9,0.8c0.5,0,1-0.4,1-0.8C191.9,96.4,191.5,96.1,190.9,96.1 M190.9,98
								c-0.7,0-1.2-0.5-1.2-1.1c0-0.6,0.5-1.1,1.2-1.1c0.7,0,1.2,0.5,1.2,1.1C192.1,97.5,191.6,98,190.9,98" />
                <path class="st1" d="M170.5,83.1l0,13.6c0,1.2,1,2.2,2.3,2.2l0-13.6C172.7,84.1,171.7,83.1,170.5,83.1" />
              </g>
            </g>
          </g>
        </g>
        <g>
          <path class="st2" d="M145.2,47.7c-52.6,0-95.4,42.8-95.4,95.4c0,26.5,10.6,51.1,29.8,69.3l1,1l1.1-1c2.8-2.6,5.7-4.9,8.7-7.1
					c14.6,12.9,33.8,20.8,54.8,20.8c21,0,40.2-7.9,54.8-20.8c3,2.2,5.9,4.5,8.7,7.1l1.1,1l1-1c19.3-18.2,29.9-42.9,29.9-69.3
					C240.6,90.5,197.8,47.7,145.2,47.7z M199.7,201.5c-13.7-9.3-29.5-15-46.1-16.4v-10.8h-3.1v17.2c0,1.2,0.4,2.4,1.1,3.3l4.4,5.7
					c-0.6,0.8-0.9,1.7-0.9,2.8c0,2.6,2.1,4.7,4.7,4.7c2.6,0,4.7-2.1,4.7-4.7s-2.1-4.7-4.7-4.7c-0.4,0-0.8,0.1-1.2,0.2l-4.5-5.9
					c-0.3-0.4-0.5-0.9-0.5-1.4v-3.2c15.7,1.4,30.7,6.7,43.7,15.5c-14,12.1-32.3,19.5-52.2,19.5c-20,0-38.2-7.4-52.2-19.5
					c12.7-8.5,27.3-13.8,42.6-15.4v3.1c0,0.5-0.2,1-0.5,1.4l-4.5,5.9c-0.4-0.1-0.8-0.2-1.2-0.2c-2.6,0-4.7,2.1-4.7,4.7
					s2.1,4.7,4.7,4.7c2.6,0,4.7-2.1,4.7-4.7c0-1-0.4-2-0.9-2.8l4.4-5.7c0.7-0.9,1.1-2.1,1.1-3.3v-17.2h-3.1v10.9
					c-16.2,1.6-31.6,7.2-45,16.3c-15.6-14.6-25.3-35.3-25.3-58.3c0-44.1,35.8-79.9,79.9-79.9s79.9,35.8,79.9,79.9
					C225.1,166.1,215.3,186.9,199.7,201.5z M209.6,209.2c-2.4-2.1-4.8-4.1-7.4-6c15.9-15.1,25.9-36.5,25.9-60.1
					c0-45.8-37.2-83-83-83s-83,37.2-83,83c0,23.6,9.9,45,25.8,60.1c-2.5,1.9-5,3.8-7.4,6c-17.9-17.5-27.8-40.9-27.8-66.1
					c0-50.9,41.4-92.4,92.4-92.4s92.4,41.4,92.4,92.4C237.5,168.3,227.6,191.7,209.6,209.2z" />
          <path class="st1" d="M243.5,109.1H37.6V159c0,4.6,3.8,8.4,8.4,8.4h205.9v-49.9C251.8,112.8,248.1,109.1,243.5,109.1z" />
          <g>
            <path class="st0" d="M157.5,155.9h-6.6l-3.6-8.6h-16.8l-3.6,8.6h-6.4l15.6-35.7h5.8L157.5,155.9z M138.9,127.6l-6.1,14.2H145
						L138.9,127.6z" />
            <path class="st0" d="M167.8,125.6h5.8v9.7h9.7v5.6h-9.7v9.7h-5.8v-9.7h-9.7v-5.6h9.7V125.6z" />
          </g>
          <path class="st2" d="M146.1,209.2v-35H143v35c-1.8,0.6-3.1,2.4-3.1,4.4c0,2.6,2.1,4.7,4.7,4.7s4.7-2.1,4.7-4.7
					C149.2,211.5,147.9,209.8,146.1,209.2z" />
        </g>
      </g>
    </g>
    <path class="st2" d="M210,206.8c0,0-0.1,0-0.1,0c0,0,0.1,0.1,0.3,0.4l0,0c-0.1,0.1-0.2,0.1-0.3,0c-0.3-0.3-0.3-0.3-0.3-0.3h-0.3
		v-0.1c0-0.1,0.1-0.2,0.2-0.2h0.1c0.1,0,0.2,0,0.2,0c0,0,0.1,0,0.1-0.1c0,0,0-0.1-0.3-0.1h-0.4v0.8c0,0.1-0.1,0.2-0.2,0.2h-0.1l0-1
		c0-0.1,0.1-0.2,0.2-0.2h0.5c0.5,0,0.6,0.3,0.6,0.4C210.2,206.7,210.1,206.8,210,206.8 M209.6,205.9c-0.5,0-0.9,0.4-0.9,0.8
		c0,0.5,0.4,0.8,0.9,0.8c0.5,0,1-0.4,1-0.8C210.5,206.3,210.1,205.9,209.6,205.9 M209.6,207.8c-0.7,0-1.2-0.5-1.2-1.1
		c0-0.6,0.5-1.1,1.2-1.1c0.7,0,1.2,0.5,1.2,1.1C210.8,207.3,210.2,207.8,209.6,207.8" />
  </g>
</svg>