<?xml version="1.0" encoding="utf-8"?>
<!-- Generator: Adobe Illustrator 25.4.1, SVG Export Plug-In . SVG Version: 6.00 Build 0)  -->
<svg version="1.1" id="Layer_3" xmlns="http://www.w3.org/2000/svg" xmlns:xlink="http://www.w3.org/1999/xlink" x="0px" y="0px"
	 viewBox="0 0 36.28 36.28" style="enable-background:new 0 0 36.28 36.28;" xml:space="preserve">
<style type="text/css">
	.st0{fill:#318ACA;}
</style>
<g>
	<path class="st0" d="M14.85,27.2H7.8c-0.75,0-1.35-0.61-1.35-1.35V10.2c0-0.75,0.61-1.35,1.35-1.35h1.84v1.48
		c0,0.32,0.26,0.58,0.58,0.58c0.32,0,0.58-0.26,0.58-0.58V8.85h11.85v1.48c0,0.32,0.26,0.58,0.58,0.58c0.32,0,0.58-0.26,0.58-0.58
		V8.85h1.84c0.75,0,1.35,0.61,1.35,1.35v5.92c0,0.32,0.26,0.58,0.58,0.58c0.32,0,0.58-0.26,0.58-0.58V10.2
		c0-1.39-1.13-2.51-2.51-2.51h-1.84V5.91c0-0.32-0.26-0.58-0.58-0.58c-0.32,0-0.58,0.26-0.58,0.58v1.78H10.8V5.91
		c0-0.32-0.26-0.58-0.58-0.58c-0.32,0-0.58,0.26-0.58,0.58v1.78H7.8c-1.39,0-2.51,1.13-2.51,2.51v15.64c0,1.39,1.13,2.51,2.51,2.51
		h7.05c0.32,0,0.58-0.26,0.58-0.58C15.43,27.46,15.17,27.2,14.85,27.2z"/>
	<circle class="st0" cx="14.85" cy="16.12" r="0.84"/>
	<path class="st0" d="M18.6,15.27c-0.47,0-0.84,0.38-0.84,0.84c0,0.47,0.38,0.84,0.84,0.84h0c0.47,0,0.84-0.38,0.84-0.84
		C19.45,15.65,19.07,15.27,18.6,15.27L18.6,15.27z"/>
	<path class="st0" d="M11.94,19.68c0-0.47-0.38-0.84-0.84-0.84h0c-0.47,0-0.84,0.38-0.84,0.84v0c0,0.47,0.38,0.84,0.84,0.84h0
		C11.56,20.52,11.94,20.15,11.94,19.68L11.94,19.68z"/>
	<path class="st0" d="M14.85,18.84c-0.47,0-0.84,0.38-0.84,0.84v0c0,0.47,0.38,0.84,0.84,0.84c0.47,0,0.84-0.38,0.84-0.84v0
		C15.69,19.21,15.31,18.84,14.85,18.84z"/>
	<path class="st0" d="M11.09,22.4L11.09,22.4c-0.47,0-0.84,0.38-0.84,0.84s0.38,0.84,0.84,0.84h0c0.47,0,0.84-0.38,0.84-0.84
		S11.56,22.4,11.09,22.4z"/>
	<circle class="st0" cx="14.85" cy="23.24" r="0.84"/>
	<path class="st0" d="M21.52,16.12c0,0.47,0.38,0.84,0.84,0.84s0.84-0.38,0.84-0.84c0-0.47-0.38-0.84-0.84-0.84
		S21.52,15.65,21.52,16.12z"/>
	<path class="st0" d="M20.96,11.84c0-0.32-0.26-0.58-0.58-0.58h-7.3c-0.32,0-0.58,0.26-0.58,0.58c0,0.32,0.26,0.58,0.58,0.58h7.3
		C20.7,12.42,20.96,12.16,20.96,11.84z"/>
	<path class="st0" d="M23.23,17.75c-3.69,0-6.69,3-6.69,6.69s3,6.69,6.69,6.69s6.69-3,6.69-6.69S26.92,17.75,23.23,17.75z
		 M23.23,29.98c-3.05,0-5.53-2.48-5.53-5.53s2.48-5.53,5.53-5.53c3.05,0,5.53,2.48,5.53,5.53S26.28,29.98,23.23,29.98z"/>
	<path class="st0" d="M25.87,24.08h-2.06V20.7c0-0.32-0.26-0.58-0.58-0.58c-0.32,0-0.58,0.26-0.58,0.58v3.96
		c0,0.32,0.26,0.58,0.58,0.58h2.64c0.32,0,0.58-0.26,0.58-0.58C26.45,24.34,26.19,24.08,25.87,24.08z"/>
</g>
</svg>
