<svg id="svg" xmlns="http://www.w3.org/2000/svg" xmlns:xlink="http://www.w3.org/1999/xlink" width="400" height="377.90563866513236" viewBox="0, 0, 400,377.90563866513236"><g id="svgg"><path id="path0" d="M185.386 0.578 C 182.697 1.077,181.793 1.841,183.890 1.841 C 185.079 1.841,185.423 2.471,184.533 3.021 C 184.254 3.193,183.749 3.997,183.410 4.808 L 182.795 6.281 179.430 5.690 C 175.013 4.915,170.094 4.890,169.529 5.639 C 169.291 5.955,168.822 7.083,168.487 8.146 C 167.562 11.081,164.834 10.394,162.026 6.519 C 160.462 4.360,160.507 4.372,157.263 5.233 C 148.584 7.539,148.270 7.578,146.824 6.509 C 145.107 5.239,145.547 5.064,141.542 8.619 C 140.897 9.192,139.773 9.457,137.786 9.506 C 130.623 9.684,112.547 17.789,104.394 24.479 C 102.071 26.386,100.930 26.010,101.573 23.550 C 102.134 21.404,99.772 22.638,93.445 27.796 C 88.209 32.064,81.933 38.438,81.933 39.488 C 81.933 40.802,79.065 41.305,77.482 40.267 C 76.848 39.852,76.269 39.581,76.194 39.664 C 76.119 39.748,74.750 41.473,73.152 43.498 C 67.776 50.309,62.818 55.007,61.528 54.512 C 61.190 54.382,60.776 55.141,60.446 56.495 C 60.152 57.701,58.982 60.396,57.847 62.484 C 55.335 67.107,54.315 69.988,54.316 72.464 L 54.317 74.338 56.826 74.397 L 59.336 74.457 68.763 65.537 C 76.094 58.600,78.459 56.617,79.401 56.617 C 80.162 56.617,81.015 56.138,81.696 55.328 C 82.292 54.619,83.525 53.638,84.436 53.148 C 85.346 52.658,85.996 52.008,85.879 51.704 C 85.388 50.425,89.079 47.272,92.404 46.131 C 93.226 45.849,94.573 45.104,95.397 44.475 C 99.093 41.656,111.544 34.983,113.108 34.983 C 113.484 34.983,114.546 34.389,115.469 33.663 C 121.647 28.802,134.586 27.134,130.270 31.755 C 128.842 33.284,127.491 33.490,125.547 32.476 C 124.299 31.825,124.281 31.835,124.281 33.213 C 124.281 34.743,125.572 37.284,126.349 37.284 C 127.685 37.284,129.039 35.775,128.232 35.184 C 127.289 34.495,127.691 34.195,130.349 33.604 C 131.442 33.361,134.200 32.673,136.479 32.075 C 138.757 31.477,141.553 30.840,142.691 30.660 L 144.760 30.333 143.275 31.865 C 141.329 33.872,140.997 35.686,142.217 37.645 C 143.247 39.299,144.599 40.080,144.896 39.191 C 145.726 36.699,148.020 35.302,153.003 34.254 C 155.164 33.799,156.411 33.278,156.855 32.646 C 157.624 31.548,161.314 29.832,164.606 29.042 L 166.930 28.485 166.726 26.028 L 166.522 23.571 168.762 23.305 C 169.993 23.159,171.989 22.909,173.197 22.750 C 174.830 22.535,175.685 22.653,176.538 23.212 C 177.395 23.773,177.909 23.843,178.571 23.489 C 179.058 23.228,180.298 23.015,181.328 23.015 C 183.720 23.015,183.680 22.585,181.021 19.658 C 179.823 18.340,178.799 17.186,178.745 17.094 C 178.606 16.859,171.616 18.434,170.730 18.900 C 168.532 20.058,168.054 18.859,169.783 16.530 C 171.584 14.105,172.272 13.852,173.922 15.008 C 174.880 15.679,175.236 15.682,177.822 15.042 C 190.971 11.786,215.011 9.370,217.090 11.096 C 217.582 11.505,218.822 11.667,220.780 11.579 C 223.980 11.435,225.611 12.112,227.856 14.514 C 228.485 15.187,229.541 16.020,230.205 16.365 C 231.149 16.857,231.362 17.246,231.187 18.163 C 230.964 19.326,230.980 19.333,234.213 19.333 C 237.033 19.333,247.550 20.624,251.506 21.456 C 252.790 21.726,252.829 21.684,252.557 20.322 C 251.996 17.518,253.583 17.605,263.473 20.924 C 267.550 22.292,273.475 24.226,276.640 25.222 C 283.601 27.413,288.241 29.611,289.902 31.503 C 291.087 32.852,291.271 32.905,294.253 32.757 C 298.197 32.561,300.862 34.583,300.344 37.378 C 300.064 38.890,300.078 38.904,304.201 41.099 C 306.477 42.311,308.997 43.916,309.800 44.666 C 310.721 45.527,311.751 46.030,312.592 46.030 C 313.689 46.030,313.924 46.224,313.924 47.128 C 313.924 49.488,321.660 58.699,327.846 63.703 C 330.030 65.470,330.030 65.470,331.598 64.726 C 333.649 63.752,333.717 63.768,333.717 65.218 C 333.717 66.558,342.601 75.743,345.192 77.083 C 345.902 77.450,347.465 78.501,348.665 79.417 C 350.951 81.161,353.510 81.100,353.510 79.302 C 353.510 77.599,351.897 73.319,350.908 72.397 C 350.305 71.836,348.387 68.383,346.646 64.725 C 341.851 54.653,339.883 52.254,337.893 54.055 C 336.724 55.113,333.321 52.709,330.265 48.665 C 328.467 46.286,327.696 45.614,326.740 45.595 C 325.749 45.574,325.563 45.395,325.758 44.649 C 325.953 43.904,325.773 43.728,324.809 43.728 C 323.941 43.728,323.691 43.542,323.884 43.038 C 324.083 42.519,323.807 42.348,322.775 42.348 C 321.676 42.348,321.284 42.065,320.818 40.940 C 320.186 39.415,315.360 35.001,310.646 31.638 C 305.909 28.257,298.022 24.377,284.235 18.645 C 277.146 15.697,269.171 12.128,266.513 10.713 C 263.855 9.298,259.919 7.647,257.768 7.045 C 250.166 4.918,233.578 1.235,231.761 1.271 C 230.748 1.291,227.020 1.445,223.475 1.614 C 218.599 1.847,215.575 1.732,211.047 1.142 C 203.904 0.211,189.109 -0.114,185.386 0.578 M123.939 1.625 C 119.137 2.828,117.078 3.055,115.819 2.523 C 115.312 2.308,114.600 2.376,114.102 2.687 C 113.419 3.114,112.742 2.993,110.654 2.070 C 107.271 0.574,107.042 0.605,106.363 2.647 C 105.224 6.070,103.040 8.020,100.260 8.095 C 98.914 8.131,96.005 8.542,93.795 9.008 L 89.777 9.854 88.852 12.867 C 88.343 14.524,87.807 16.605,87.661 17.491 C 87.515 18.377,87.315 19.518,87.216 20.027 C 86.681 22.762,87.165 22.623,102.417 15.653 C 115.200 9.812,119.346 8.297,119.938 9.254 C 120.419 10.033,121.919 9.662,125.718 7.825 C 127.812 6.812,129.818 5.984,130.176 5.984 C 130.862 5.984,130.678 3.910,129.786 1.562 C 129.292 0.263,129.384 0.262,123.939 1.625 M297.814 8.349 C 297.814 8.560,298.431 9.736,299.186 10.963 C 300.949 13.828,301.129 15.263,299.798 15.856 C 295.769 17.650,298.705 20.097,310.012 24.366 C 312.037 25.131,314.510 26.431,315.508 27.254 C 316.617 28.169,317.723 28.699,318.353 28.616 C 320.665 28.313,325.575 31.785,324.994 33.312 C 324.059 35.772,326.468 38.399,332.990 42.031 C 335.123 43.219,337.558 44.987,338.400 45.960 C 339.490 47.221,340.421 47.807,341.635 47.998 C 345.307 48.576,351.669 52.907,351.669 54.829 C 351.669 56.232,352.195 57.196,354.661 60.299 C 356.306 62.371,357.652 64.254,357.652 64.484 C 357.652 64.714,357.889 64.902,358.177 64.902 C 358.539 64.902,358.619 64.101,358.435 62.314 C 358.117 59.236,356.887 57.233,350.981 50.173 C 348.757 47.514,345.727 43.751,344.247 41.809 C 341.183 37.789,339.335 36.179,333.487 32.437 C 328.149 29.022,325.115 26.483,324.220 24.683 C 323.827 23.892,322.595 22.313,321.482 21.174 C 320.368 20.035,318.290 17.813,316.862 16.237 C 312.797 11.750,307.954 9.891,305.254 11.782 C 303.910 12.724,302.322 12.129,299.684 9.693 C 298.655 8.744,297.814 8.139,297.814 8.349 M222.627 56.191 C 221.401 56.688,219.641 57.652,218.715 58.333 C 217.789 59.014,216.954 59.622,216.860 59.685 C 216.766 59.747,216.319 61.130,215.868 62.758 C 213.803 70.203,217.738 78.831,224.856 82.468 C 233.978 87.128,236.873 89.111,237.354 91.024 C 237.497 91.594,237.882 92.060,238.210 92.060 C 239.268 92.060,239.320 96.677,238.278 98.124 C 235.555 101.909,231.914 99.804,229.181 92.865 C 228.018 89.912,227.715 89.792,223.794 90.742 C 220.857 91.453,220.779 91.584,221.626 94.414 C 223.708 101.378,225.142 104.427,226.352 104.468 C 226.669 104.479,226.928 104.644,226.928 104.836 C 226.928 105.348,229.137 106.191,231.761 106.679 C 234.265 107.145,238.895 106.922,238.895 106.336 C 238.895 106.135,239.599 105.839,240.460 105.678 C 241.321 105.516,242.278 105.079,242.588 104.706 C 242.897 104.333,243.436 104.028,243.785 104.028 C 244.134 104.028,244.419 103.766,244.419 103.446 C 244.419 103.127,244.920 102.489,245.532 102.029 C 250.183 98.536,246.198 84.291,239.457 80.309 C 238.642 79.827,237.975 79.271,237.975 79.072 C 237.975 78.874,237.704 78.711,237.372 78.711 C 237.041 78.711,235.566 77.986,234.094 77.100 C 232.623 76.214,231.133 75.489,230.784 75.489 C 230.435 75.489,230.150 75.307,230.150 75.085 C 230.150 74.862,229.491 74.408,228.687 74.074 C 226.181 73.036,224.548 70.960,223.336 67.271 C 222.195 63.798,226.718 61.282,229.281 63.964 C 230.354 65.086,230.639 65.192,231.098 64.638 C 231.398 64.277,231.475 63.982,231.269 63.982 C 231.063 63.982,231.296 63.688,231.786 63.329 C 233.180 62.310,233.911 63.222,233.063 64.921 C 232.341 66.369,231.744 66.650,231.392 65.708 C 231.250 65.327,231.059 65.420,230.827 65.984 C 230.625 66.474,230.684 66.965,230.966 67.139 C 231.235 67.306,231.524 68.165,231.608 69.049 C 231.777 70.830,232.356 70.938,237.629 70.166 C 240.246 69.783,240.219 70.012,238.334 64.011 C 235.794 55.931,230.169 53.130,222.627 56.191 M209.427 58.003 C 208.538 58.553,208.995 58.879,210.096 58.480 C 210.586 58.302,210.783 58.031,210.534 57.877 C 210.286 57.724,209.788 57.780,209.427 58.003 M240.084 58.754 C 239.699 59.758,240.211 60.225,240.754 59.365 C 241.299 58.505,241.310 57.998,240.786 57.998 C 240.560 57.998,240.244 58.338,240.084 58.754 M185.961 60.197 C 185.961 60.678,187.697 62.140,188.268 62.140 C 188.845 62.140,188.841 61.840,188.246 60.729 C 187.790 59.878,185.961 59.451,185.961 60.197 M197.699 62.465 C 195.926 62.833,194.010 63.225,193.441 63.336 C 191.698 63.677,192.863 66.045,195.169 66.847 C 195.549 66.979,197.037 68.046,198.475 69.217 C 199.912 70.388,201.376 71.346,201.727 71.346 C 202.959 71.346,207.135 69.925,207.135 69.505 C 207.135 68.769,201.895 61.677,201.396 61.739 C 201.135 61.771,199.471 62.098,197.699 62.465 M186.937 63.938 C 186.411 64.270,186.451 64.546,187.167 65.527 C 188.239 66.997,188.922 67.086,188.552 65.708 C 188.400 65.138,188.272 64.413,188.269 64.097 C 188.261 63.426,187.827 63.374,186.937 63.938 M184.580 66.212 C 183.947 66.300,183.173 66.581,182.861 66.838 C 182.548 67.095,180.166 67.885,177.567 68.593 C 174.969 69.301,170.357 70.604,167.319 71.488 C 164.281 72.372,160.915 73.331,159.839 73.619 C 158.374 74.012,157.883 74.372,157.883 75.053 C 157.883 75.836,159.241 81.431,159.532 81.850 C 159.589 81.931,161.744 81.441,164.321 80.762 C 170.127 79.230,169.249 78.181,172.427 90.449 C 174.466 98.321,177.273 108.832,178.806 114.341 C 179.434 116.596,180.085 119.652,180.252 121.131 C 180.419 122.610,180.581 123.817,180.612 123.813 C 180.642 123.808,182.221 123.398,184.120 122.900 C 186.018 122.402,188.038 121.992,188.608 121.987 C 189.322 121.982,189.643 121.703,189.643 121.089 C 189.643 119.554,188.297 113.716,187.641 112.410 C 187.297 111.724,186.757 109.816,186.442 108.170 C 186.127 106.525,185.476 104.143,184.995 102.877 C 184.514 101.611,184.120 100.237,184.120 99.823 C 184.120 99.409,183.831 98.062,183.477 96.831 C 183.124 95.599,182.611 93.659,182.337 92.520 C 182.064 91.381,180.934 87.417,179.826 83.711 L 177.812 76.973 181.541 75.995 C 183.592 75.457,185.944 75.019,186.766 75.023 C 188.511 75.030,188.481 75.158,187.501 71.847 C 185.731 65.871,185.819 66.041,184.580 66.212 M151.275 74.000 C 150.995 74.453,152.562 75.949,153.317 75.949 C 153.585 75.949,153.738 75.483,153.657 74.914 C 153.507 73.862,151.772 73.196,151.275 74.000 M40.341 78.934 C 38.679 81.438,38.240 82.854,39.125 82.854 C 40.229 82.854,39.447 84.340,38.033 84.930 C 37.179 85.287,36.367 86.013,36.228 86.544 C 36.089 87.075,35.338 87.750,34.559 88.044 C 33.779 88.339,33.142 88.751,33.142 88.962 C 33.142 89.973,34.880 92.455,37.782 95.584 C 39.539 97.480,41.312 99.689,41.721 100.493 C 42.130 101.298,42.507 102.007,42.558 102.070 C 42.866 102.444,47.411 100.661,47.411 100.166 C 47.411 99.834,48.032 98.705,48.792 97.656 C 50.434 95.389,50.434 95.389,49.217 94.094 C 48.301 93.118,48.291 92.991,48.987 90.941 C 50.240 87.250,49.485 86.031,45.677 85.598 L 43.498 85.350 46.213 84.510 C 47.951 83.972,49.500 83.097,50.519 82.078 L 52.111 80.485 51.027 79.307 C 47.568 75.551,42.701 75.381,40.341 78.934 M140.391 80.369 C 135.455 81.751,130.898 83.040,130.265 83.233 C 128.853 83.663,128.868 83.916,130.695 90.449 C 131.474 93.234,132.747 97.791,133.525 100.575 C 134.302 103.360,136.605 111.867,138.643 119.480 L 142.347 133.322 144.707 132.675 C 146.004 132.318,147.687 131.845,148.446 131.623 C 149.206 131.401,153.297 130.353,157.537 129.293 C 166.236 127.120,165.806 127.530,164.266 122.874 C 163.057 119.216,162.796 118.908,161.459 119.568 C 160.885 119.851,158.964 120.397,157.192 120.781 C 155.420 121.164,153.064 121.798,151.956 122.189 C 149.120 123.190,148.849 123.114,148.306 121.174 C 147.661 118.870,145.016 109.925,144.775 109.233 C 144.654 108.886,145.544 108.493,147.206 108.161 C 149.804 107.641,155.782 106.340,156.801 106.072 C 157.191 105.970,157.166 105.406,156.707 103.944 C 156.363 102.851,155.851 101.055,155.569 99.953 C 155.125 98.222,154.919 97.983,154.052 98.197 C 150.898 98.979,144.201 100.930,143.598 101.242 C 143.013 101.547,142.668 100.663,141.565 96.029 C 140.834 92.960,140.064 90.100,139.854 89.675 C 139.526 89.009,139.975 88.794,143.039 88.144 C 145.000 87.727,147.523 87.092,148.644 86.731 C 149.765 86.371,151.137 86.076,151.694 86.076 C 152.826 86.076,153.967 84.975,153.544 84.291 C 153.393 84.046,153.064 82.763,152.813 81.439 C 151.971 77.000,152.318 77.030,140.391 80.369 M237.325 84.572 C 237.646 84.893,238.286 85.162,238.747 85.170 C 239.557 85.184,239.557 85.207,238.744 85.823 C 238.060 86.341,237.998 86.641,238.415 87.419 C 238.965 88.447,238.896 88.525,237.811 88.109 C 237.400 87.951,237.227 87.542,237.391 87.115 C 237.607 86.551,237.446 86.447,236.671 86.649 C 236.122 86.793,235.673 86.723,235.673 86.493 C 235.673 86.264,235.984 86.076,236.364 86.076 C 236.743 86.076,237.054 85.765,237.054 85.386 C 237.054 85.006,236.763 84.695,236.407 84.695 C 235.964 84.695,235.844 84.371,236.027 83.671 C 236.214 82.956,236.362 82.850,236.518 83.318 C 236.641 83.687,237.004 84.251,237.325 84.572 M359.383 86.440 C 355.779 87.444,355.321 89.134,357.825 92.190 C 360.121 94.992,361.005 97.289,360.634 99.488 C 360.371 101.041,360.551 101.606,361.999 103.789 C 365.526 109.101,367.517 118.569,366.014 122.879 C 365.530 124.267,365.753 124.805,370.119 132.799 L 374.736 141.252 374.206 145.079 C 373.605 149.414,373.861 153.815,375.164 161.565 C 375.976 166.402,376.622 169.125,378.649 176.258 L 379.358 178.752 380.409 177.434 L 381.460 176.116 382.000 177.126 C 382.626 178.294,382.122 179.575,380.401 181.190 C 379.000 182.504,378.014 186.020,377.672 190.913 C 377.275 196.607,377.116 197.229,376.244 196.506 C 375.703 196.057,375.611 195.408,375.846 193.703 L 376.151 191.484 373.334 191.484 C 369.786 191.484,369.608 191.117,369.705 183.994 C 369.779 178.521,369.079 175.856,367.321 174.915 C 364.761 173.545,363.086 187.192,364.553 197.468 C 365.029 200.807,366.808 208.976,367.058 208.976 C 367.688 208.976,370.384 207.794,370.642 207.404 C 370.876 207.051,371.244 207.073,371.901 207.480 C 372.412 207.796,373.351 208.055,373.987 208.055 C 375.488 208.055,375.495 208.021,373.072 212.501 C 370.712 216.866,370.583 217.585,372.056 218.145 C 374.606 219.115,374.719 220.734,372.601 225.946 C 371.072 229.709,371.097 230.819,372.715 230.913 C 373.504 230.959,374.528 231.597,375.482 232.639 C 376.651 233.914,377.355 234.292,378.559 234.292 L 380.121 234.292 380.073 230.495 C 380.017 226.144,380.617 223.796,383.866 215.650 C 388.031 205.206,389.153 200.549,388.661 195.750 L 388.364 192.848 386.888 193.125 C 382.557 193.937,383.457 189.230,388.124 186.660 L 390.287 185.469 390.023 181.457 C 389.767 177.555,388.845 174.453,387.942 174.453 C 387.697 174.453,387.980 173.677,388.570 172.727 C 390.053 170.342,389.974 166.017,388.341 160.122 C 387.056 155.487,386.825 152.661,387.530 150.203 C 387.868 149.024,387.788 148.598,387.112 147.986 C 386.652 147.570,386.013 146.571,385.693 145.766 C 385.373 144.962,385.062 144.235,385.001 144.152 C 384.940 144.068,384.353 144.352,383.697 144.782 C 382.328 145.679,381.128 145.098,381.128 143.539 C 381.128 142.313,382.868 139.020,383.680 138.709 C 385.959 137.834,381.735 123.614,373.857 105.639 C 371.194 99.563,368.341 92.727,367.516 90.449 C 366.134 86.629,365.927 86.316,364.861 86.433 C 364.226 86.503,363.574 86.348,363.414 86.088 C 363.048 85.496,362.649 85.531,359.383 86.440 M101.036 89.596 C 99.264 90.250,97.750 90.843,97.672 90.913 C 97.593 90.983,97.865 91.839,98.275 92.816 C 98.684 93.792,99.318 96.003,99.683 97.729 C 100.047 99.454,100.539 101.229,100.776 101.671 C 101.013 102.114,102.474 107.020,104.022 112.573 C 105.570 118.126,107.758 125.587,108.884 129.152 C 110.011 132.718,110.932 136.175,110.932 136.835 C 110.932 137.495,111.139 138.163,111.392 138.320 C 111.646 138.476,111.856 139.162,111.860 139.843 C 111.875 142.461,112.047 142.468,120.649 140.190 C 125.052 139.024,129.586 137.778,130.725 137.419 C 131.864 137.061,133.488 136.631,134.334 136.463 C 135.554 136.220,135.824 135.976,135.643 135.282 C 135.517 134.801,135.602 134.407,135.831 134.407 C 136.616 134.407,136.250 133.060,135.331 132.568 C 134.750 132.257,134.304 131.392,134.115 130.211 C 133.796 128.216,132.917 127.523,131.682 128.294 C 131.263 128.556,130.004 128.925,128.884 129.114 C 127.764 129.303,126.529 129.614,126.140 129.805 C 123.996 130.857,119.152 132.004,118.988 131.498 C 118.797 130.907,115.960 120.809,113.209 110.932 C 112.257 107.514,110.835 102.440,110.050 99.655 C 109.265 96.870,108.349 93.245,108.015 91.600 C 107.275 87.953,106.268 87.663,101.036 89.596 M178.336 94.871 C 178.196 95.097,178.326 95.282,178.625 95.282 C 179.023 95.282,179.010 95.473,178.578 95.994 C 178.106 96.563,177.911 96.586,177.608 96.109 C 177.316 95.649,177.228 95.644,177.222 96.087 C 177.212 96.900,176.447 96.803,176.119 95.948 C 175.940 95.482,176.030 95.348,176.378 95.564 C 176.715 95.772,176.820 95.654,176.662 95.242 C 176.493 94.803,176.766 94.570,177.501 94.525 C 178.100 94.489,178.476 94.644,178.336 94.871 M243.052 97.293 C 242.726 97.619,242.578 97.435,242.578 96.706 C 242.578 95.951,242.378 95.720,241.887 95.909 C 241.507 96.054,241.197 95.988,241.197 95.762 C 241.197 95.535,241.559 95.276,242.002 95.185 C 242.959 94.990,243.756 96.590,243.052 97.293 M158.978 96.548 C 159.108 96.991,159.352 98.130,159.520 99.079 C 159.713 100.169,160.080 100.806,160.515 100.806 C 161.029 100.806,161.127 100.498,160.902 99.601 C 160.736 98.939,160.480 97.799,160.334 97.069 C 160.188 96.339,159.770 95.742,159.405 95.742 C 158.990 95.742,158.830 96.044,158.978 96.548 M227.388 96.203 C 227.946 96.563,227.880 96.650,227.043 96.656 C 226.473 96.660,226.007 96.456,226.007 96.203 C 226.007 95.626,226.495 95.626,227.388 96.203 M155.581 96.893 C 155.581 97.273,155.788 97.583,156.041 97.583 C 156.295 97.583,156.502 97.273,156.502 96.893 C 156.502 96.513,156.295 96.203,156.041 96.203 C 155.788 96.203,155.581 96.513,155.581 96.893 M180.430 99.770 C 180.416 100.443,179.531 101.540,179.524 100.893 C 179.520 100.562,179.312 100.417,179.062 100.572 C 178.801 100.733,178.724 100.549,178.881 100.139 C 179.155 99.425,180.444 99.118,180.430 99.770 M243.802 100.655 C 243.496 100.961,241.700 100.188,241.914 99.842 C 242.049 99.623,242.555 99.690,243.038 99.992 C 243.521 100.294,243.865 100.592,243.802 100.655 M241.680 101.266 C 242.174 101.266,242.578 101.557,242.578 101.913 C 242.578 102.358,242.253 102.476,241.542 102.290 C 240.171 101.932,239.218 100.941,239.620 100.290 C 239.843 99.929,240.074 100.000,240.363 100.516 C 240.593 100.929,241.186 101.266,241.680 101.266 M22.253 102.736 C 20.322 104.846,19.694 106.842,19.263 112.241 C 18.967 115.935,18.508 118.375,17.738 120.330 C 17.131 121.870,15.992 126.913,15.205 131.538 C 12.965 144.704,10.803 151.048,7.886 153.009 C 6.708 153.800,6.611 154.072,6.802 156.057 C 7.059 158.732,6.238 161.374,4.708 162.792 L 3.556 163.859 4.418 168.106 C 5.652 174.187,6.136 174.642,11.582 174.840 L 15.880 174.997 15.735 171.618 C 15.563 167.625,17.299 159.545,19.100 155.961 C 20.164 153.842,20.192 153.614,19.517 152.584 C 18.759 151.426,18.966 150.518,19.990 150.518 C 20.347 150.518,20.695 149.753,20.844 148.641 C 20.982 147.609,21.979 145.279,23.058 143.463 C 27.580 135.853,27.725 135.459,27.410 131.646 C 27.029 127.046,29.232 120.771,35.537 108.493 C 36.811 106.012,37.777 103.916,37.684 103.834 C 35.891 102.255,31.535 101.372,30.437 102.364 C 29.627 103.098,27.745 102.971,24.156 101.941 C 23.532 101.762,22.904 102.024,22.253 102.736 M160.474 102.090 C 160.292 102.385,161.299 105.065,161.880 105.830 C 162.377 106.486,162.468 105.212,162.038 103.614 C 161.558 101.832,160.981 101.270,160.474 102.090 M40.172 117.910 C 39.870 118.756,38.907 122.244,38.033 125.662 C 35.966 133.742,34.747 136.914,32.924 138.956 C 31.787 140.229,31.370 141.197,31.157 143.066 C 30.990 144.518,29.423 149.095,27.295 154.343 C 22.837 165.338,22.297 170.156,25.247 172.619 L 26.788 173.906 26.052 176.437 C 24.191 182.840,25.852 186.401,30.364 185.680 C 31.385 185.517,32.218 185.358,32.214 185.327 C 31.839 182.310,30.901 181.120,28.721 180.897 L 26.467 180.665 29.697 179.055 L 32.926 177.445 32.388 175.144 C 30.204 165.810,33.517 151.024,40.510 138.894 C 41.501 137.176,42.207 135.497,42.079 135.164 C 41.951 134.831,42.190 133.547,42.610 132.311 C 43.356 130.113,43.351 130.049,42.400 129.418 C 41.021 128.502,41.178 127.383,43.211 123.647 C 46.185 118.180,46.095 117.232,42.547 116.664 C 40.796 116.384,40.699 116.436,40.172 117.910 M247.065 132.633 C 242.545 134.194,242.870 133.713,242.125 139.931 C 241.867 142.083,241.464 144.983,241.230 146.375 C 240.995 147.768,240.789 149.846,240.770 150.994 C 240.733 153.311,238.915 155.077,237.494 154.178 C 236.964 153.843,237.031 153.753,237.810 153.747 C 239.155 153.737,239.461 152.664,238.700 150.619 C 237.840 148.305,235.897 141.639,235.211 138.650 C 234.778 136.762,234.484 136.263,233.897 136.421 C 225.776 138.598,225.659 138.683,226.636 141.677 C 227.486 144.278,230.156 153.093,231.545 157.883 C 232.096 159.781,232.836 162.222,233.189 163.307 C 233.543 164.392,233.832 165.586,233.832 165.960 C 233.832 166.335,234.046 167.000,234.307 167.440 C 234.568 167.880,236.118 173.086,237.750 179.009 C 241.218 191.593,240.505 190.253,243.305 189.457 C 244.551 189.103,246.357 188.678,247.320 188.512 C 249.462 188.144,249.824 187.346,248.856 185.131 C 247.107 181.130,244.870 172.589,245.183 171.106 C 245.355 170.289,245.512 169.051,245.533 168.354 C 245.566 167.201,246.720 166.445,246.720 167.577 C 246.720 167.979,248.724 170.920,250.318 172.854 C 250.532 173.114,251.091 173.943,251.560 174.696 C 252.030 175.448,252.828 176.533,253.334 177.105 C 253.841 177.677,254.683 178.844,255.206 179.698 C 258.762 185.505,258.723 185.481,262.560 184.351 C 263.848 183.972,265.783 183.446,266.858 183.182 C 269.350 182.572,269.378 182.696,265.708 178.072 C 259.810 170.642,259.969 170.855,257.186 166.690 C 256.487 165.644,255.762 164.786,255.575 164.785 C 255.389 164.784,254.361 163.489,253.291 161.908 C 252.222 160.327,250.614 158.242,249.717 157.274 C 248.821 156.307,248.186 155.356,248.307 155.161 C 248.427 154.966,248.732 153.686,248.985 152.317 C 249.237 150.948,249.982 147.135,250.640 143.843 C 251.922 137.431,252.604 133.812,252.807 132.336 C 252.996 130.971,251.677 131.039,247.065 132.633 M5.801 136.387 C 5.645 137.218,4.351 139.941,2.925 142.438 C -1.050 149.394,-1.100 153.252,2.837 149.113 C 5.697 146.106,6.731 143.529,6.831 139.157 C 6.919 135.306,6.311 133.670,5.801 136.387 M218.067 137.026 C 217.624 137.142,217.261 137.556,217.261 137.947 C 217.261 138.436,217.555 138.581,218.202 138.412 C 218.819 138.250,219.331 138.468,219.693 139.048 C 220.402 140.184,221.633 140.248,221.171 139.125 C 220.988 138.682,220.735 137.957,220.608 137.514 C 220.382 136.729,219.703 136.598,218.067 137.026 M211.263 142.213 C 210.875 142.440,209.114 142.953,207.350 143.353 C 202.263 144.506,195.172 146.932,195.472 147.417 C 195.623 147.661,196.122 149.235,196.581 150.915 C 197.040 152.595,197.717 154.902,198.084 156.041 C 198.452 157.181,199.418 160.391,200.231 163.176 C 201.045 165.961,201.977 169.068,202.304 170.081 C 203.190 172.828,204.701 178.089,205.278 180.437 C 205.558 181.577,206.426 184.787,207.208 187.572 C 207.989 190.357,208.838 193.821,209.094 195.271 C 209.593 198.095,210.363 198.477,212.888 197.152 C 213.395 196.887,214.896 196.414,216.226 196.102 C 218.940 195.465,218.977 195.372,217.780 192.175 C 217.306 190.909,216.432 187.802,215.837 185.270 C 215.243 182.739,214.619 180.564,214.452 180.437 C 214.284 180.311,213.906 179.041,213.612 177.617 C 213.317 176.192,212.704 174.295,212.248 173.400 C 211.668 172.264,211.600 171.844,212.020 172.005 C 212.350 172.132,213.366 171.990,214.277 171.689 C 217.173 170.733,220.483 173.499,220.483 176.873 C 220.483 177.285,220.690 177.749,220.944 177.906 C 221.197 178.062,221.404 178.758,221.404 179.452 C 221.404 180.146,221.585 180.910,221.805 181.151 C 222.245 181.630,223.960 188.270,223.795 188.856 C 223.739 189.057,223.929 189.661,224.217 190.200 C 224.506 190.739,224.778 191.818,224.822 192.598 C 224.907 194.080,227.117 194.508,227.926 193.200 C 228.102 192.916,229.622 192.595,231.305 192.488 C 234.974 192.254,235.278 191.810,233.852 188.765 C 233.287 187.560,232.320 184.727,231.703 182.470 C 229.269 173.575,228.897 172.330,228.382 171.368 C 228.088 170.820,227.848 169.943,227.848 169.420 C 227.848 168.897,227.641 168.470,227.388 168.470 C 227.135 168.470,226.928 168.203,226.928 167.878 C 226.928 167.124,224.553 165.708,223.289 165.708 C 222.213 165.708,222.102 165.472,222.793 164.653 C 224.799 162.275,225.087 161.720,225.092 160.229 C 225.098 158.522,223.709 151.848,223.262 151.438 C 223.124 151.312,222.633 150.069,222.171 148.677 C 220.443 143.469,214.813 140.133,211.263 142.213 M189.298 146.644 C 187.471 147.443,187.351 147.951,189.068 147.618 C 189.866 147.463,190.631 147.640,191.139 148.096 C 191.889 148.769,191.945 148.719,191.945 147.367 C 191.945 145.754,191.568 145.651,189.298 146.644 M253.477 146.260 C 252.749 147.502,256.324 160.984,257.832 162.685 C 259.031 164.038,258.479 159.515,257.049 156.272 C 256.283 154.534,255.334 151.106,255.201 149.597 C 255.007 147.398,253.978 145.405,253.477 146.260 M179.812 151.757 C 179.689 151.880,178.758 152.167,177.742 152.395 C 168.182 154.543,166.878 160.445,172.158 177.675 C 172.973 180.334,173.741 183.285,173.864 184.235 C 173.988 185.184,174.275 185.961,174.502 185.961 C 174.728 185.961,174.914 186.339,174.914 186.801 C 174.914 190.133,178.715 199.792,180.751 201.634 C 185.205 205.662,196.193 205.309,199.674 201.025 C 203.648 196.132,203.289 189.661,198.235 175.077 C 197.608 173.268,196.835 170.575,196.515 169.093 C 196.196 167.611,195.768 166.177,195.564 165.906 C 195.360 165.636,194.957 164.316,194.669 162.973 C 193.452 157.295,190.749 153.494,186.986 152.166 C 185.165 151.523,180.322 151.247,179.812 151.757 M240.402 155.151 C 240.220 155.847,240.016 155.965,239.643 155.592 C 239.224 155.173,239.827 154.281,240.578 154.207 C 240.618 154.203,240.538 154.628,240.402 155.151 M155.523 156.711 C 154.351 157.034,153.160 157.442,152.876 157.618 C 152.142 158.071,152.235 160.915,153.009 161.689 C 153.569 162.249,153.866 164.310,154.218 170.081 C 154.367 172.527,156.500 185.459,156.989 186.881 C 157.207 187.514,157.514 188.861,157.671 189.873 L 157.957 191.715 157.229 190.396 C 156.829 189.671,156.502 188.899,156.502 188.680 C 156.502 188.307,154.647 184.141,152.096 178.780 C 151.481 177.489,150.978 176.176,150.978 175.861 C 150.978 175.546,150.564 174.762,150.058 174.119 C 149.551 173.475,149.137 172.677,149.137 172.344 C 149.137 172.012,148.619 170.766,147.986 169.576 C 147.353 168.386,146.835 167.249,146.835 167.051 C 146.835 166.852,146.193 165.260,145.407 163.512 L 143.978 160.334 140.919 161.179 C 136.469 162.407,136.711 162.223,137.204 164.011 C 137.656 165.646,138.102 168.658,139.228 177.675 C 140.264 185.976,141.389 192.613,141.804 192.878 C 142.013 193.011,142.015 193.393,141.809 193.727 C 141.539 194.163,141.349 193.997,141.134 193.139 C 140.761 191.654,140.380 191.638,139.308 193.065 C 138.548 194.077,136.814 194.273,137.429 193.277 C 137.569 193.051,137.270 192.865,136.763 192.865 C 135.658 192.865,135.089 192.132,135.900 191.754 C 136.341 191.548,136.348 191.423,135.927 191.224 C 135.125 190.845,136.165 188.719,136.996 189.038 C 137.345 189.172,137.629 189.013,137.629 188.684 C 137.629 188.316,137.866 188.410,138.245 188.928 C 139.810 191.069,139.861 189.242,138.325 186.037 C 137.436 184.182,136.709 182.424,136.709 182.130 C 136.709 181.836,135.965 180.041,135.057 178.140 C 133.204 174.264,132.890 173.528,132.115 171.231 C 130.708 167.061,129.166 164.724,127.963 164.939 C 125.288 165.417,121.979 166.412,121.979 166.737 C 121.979 166.930,121.669 167.089,121.289 167.089 C 120.380 167.089,120.396 167.192,121.808 170.483 C 122.473 172.034,123.313 174.028,123.674 174.914 C 124.035 175.800,124.627 177.070,124.990 177.736 C 125.352 178.402,126.296 180.784,127.087 183.029 C 127.879 185.274,128.661 187.215,128.825 187.342 C 128.989 187.468,129.608 188.711,130.200 190.104 C 130.791 191.496,132.084 194.324,133.072 196.387 C 134.059 198.451,134.868 200.359,134.868 200.627 C 134.868 200.896,135.573 202.625,136.435 204.470 C 138.403 208.681,140.651 213.947,141.061 215.305 C 141.542 216.899,142.668 217.267,144.767 216.516 C 147.150 215.663,150.471 214.885,151.784 214.872 C 153.061 214.860,153.068 214.475,151.874 209.799 C 151.354 207.762,150.741 204.827,150.513 203.278 C 150.284 201.728,149.788 198.389,149.409 195.857 C 149.031 193.326,148.712 190.944,148.701 190.564 C 148.670 189.551,150.221 192.256,151.899 196.144 C 152.704 198.012,154.040 200.886,154.865 202.532 C 155.691 204.177,156.955 207.077,157.674 208.976 C 158.393 210.875,159.014 212.484,159.055 212.553 C 159.096 212.622,160.218 212.174,161.548 211.557 C 162.879 210.941,165.293 210.173,166.913 209.851 L 169.859 209.265 169.565 206.934 C 169.402 205.652,169.012 203.774,168.697 202.762 C 168.383 201.749,167.872 199.056,167.562 196.778 C 167.252 194.499,166.808 192.117,166.577 191.484 C 166.345 190.852,165.964 188.470,165.730 186.191 C 165.496 183.913,164.967 180.081,164.554 177.675 C 164.141 175.270,163.727 172.578,163.633 171.692 C 163.232 167.915,161.695 158.191,161.287 156.847 C 160.993 155.878,158.738 155.824,155.523 156.711 M184.889 162.261 C 186.572 166.807,187.096 168.510,191.048 182.278 C 191.520 183.924,192.241 186.617,192.649 188.262 C 193.058 189.908,193.573 191.953,193.793 192.806 C 194.427 195.258,192.378 197.483,189.507 197.460 C 188.227 197.450,186.577 195.737,186.157 193.981 C 185.980 193.241,185.578 192.117,185.264 191.484 C 184.694 190.338,183.094 185.089,182.247 181.588 C 182.002 180.575,181.621 179.333,181.400 178.826 C 180.865 177.601,177.578 164.471,177.367 162.716 C 176.806 158.060,183.190 157.674,184.889 162.261 M244.879 160.409 C 244.879 160.853,244.486 161.062,243.762 161.002 C 243.147 160.951,242.739 160.755,242.856 160.567 C 242.972 160.378,243.372 160.341,243.743 160.484 C 244.115 160.626,244.419 160.514,244.419 160.233 C 244.419 159.953,244.522 159.724,244.649 159.724 C 244.776 159.724,244.879 160.032,244.879 160.409 M397.238 168.892 C 396.605 169.075,396.105 169.520,396.127 169.882 C 396.604 177.737,397.953 192.405,398.199 192.405 C 399.507 192.405,400.502 179.577,399.786 171.937 C 399.450 168.351,399.386 168.274,397.238 168.892 M176.452 170.000 C 176.619 169.833,176.755 169.916,176.755 170.185 C 176.755 170.649,175.733 171.231,174.919 171.231 C 174.710 171.231,174.649 170.813,174.783 170.301 C 174.958 169.630,175.183 169.501,175.588 169.837 C 175.896 170.093,176.285 170.166,176.452 170.000 M144.534 179.747 C 144.534 180.127,144.327 180.437,144.074 180.437 C 143.820 180.437,143.613 180.127,143.613 179.747 C 143.613 179.367,143.820 179.056,144.074 179.056 C 144.327 179.056,144.534 179.367,144.534 179.747 M146.468 183.992 C 146.256 185.102,146.192 185.141,145.904 184.337 C 145.652 183.629,146.028 182.832,146.657 182.746 C 146.685 182.742,146.600 183.303,146.468 183.992 M150.363 185.270 C 150.282 185.524,149.813 185.791,149.321 185.864 C 148.563 185.977,148.453 186.295,148.603 187.935 C 148.701 189.001,148.633 189.731,148.451 189.558 C 147.845 188.977,147.764 185.781,148.346 185.411 C 148.726 185.169,148.629 185.052,148.045 185.047 C 147.361 185.042,147.293 184.908,147.714 184.400 C 148.320 183.671,150.631 184.430,150.363 185.270 M329.777 189.841 C 328.851 190.522,329.600 191.281,330.854 190.932 C 331.127 190.856,331.659 191.208,332.036 191.714 C 332.916 192.896,333.206 192.557,332.920 190.679 C 332.664 188.998,331.385 188.657,329.777 189.841 M137.444 189.982 C 136.935 190.491,137.164 191.828,137.860 192.405 C 138.416 192.867,138.557 192.855,138.585 192.346 C 138.605 191.999,138.688 191.366,138.770 190.941 C 138.920 190.164,137.958 189.468,137.444 189.982 M322.900 194.881 C 322.140 195.210,320.690 195.610,319.678 195.770 C 317.768 196.073,307.480 199.220,307.480 199.502 C 307.480 199.590,308.308 202.222,309.321 205.350 C 310.334 208.479,311.162 211.319,311.162 211.661 C 311.162 212.003,311.667 213.766,312.284 215.578 C 314.413 221.835,316.742 229.677,316.983 231.406 C 317.117 232.361,317.495 233.867,317.823 234.753 C 318.553 236.719,321.079 246.306,321.486 248.653 C 321.803 250.477,323.049 250.757,325.354 249.524 C 325.864 249.251,327.333 248.802,328.618 248.526 C 331.274 247.957,331.260 247.989,330.082 244.999 C 329.602 243.781,328.854 241.339,328.422 239.574 C 327.989 237.808,327.158 234.810,326.575 232.911 C 325.559 229.603,324.980 227.482,324.694 226.015 C 324.621 225.640,324.343 225.260,324.076 225.171 C 323.151 224.863,323.596 224.396,324.856 224.352 C 325.552 224.327,326.743 224.157,327.503 223.974 C 330.469 223.258,332.814 227.537,335.301 238.205 C 335.714 239.977,336.301 242.252,336.605 243.260 C 336.908 244.268,337.094 245.467,337.016 245.923 C 336.859 246.854,338.333 246.680,340.591 245.501 C 341.241 245.162,342.846 244.884,344.158 244.882 C 347.055 244.879,347.594 243.985,346.161 241.558 C 345.648 240.687,344.808 238.336,344.296 236.333 C 343.380 232.753,341.972 228.038,341.006 225.316 C 340.737 224.557,340.415 223.384,340.292 222.709 C 339.964 220.914,337.294 218.182,335.868 218.182 C 335.221 218.182,334.564 217.975,334.407 217.722 C 334.251 217.468,334.422 217.261,334.787 217.261 C 335.152 217.261,335.584 216.899,335.746 216.456 C 335.908 216.013,336.383 215.029,336.800 214.270 C 338.233 211.664,334.770 199.714,331.720 196.739 C 329.295 194.372,325.782 193.632,322.900 194.881 M6.804 197.998 C 3.760 199.111,4.611 202.621,9.347 208.491 L 12.523 212.428 10.749 212.786 C 8.478 213.244,8.262 213.249,7.025 212.869 C 5.501 212.402,5.269 213.604,6.211 217.084 C 6.676 218.802,6.917 220.830,6.779 221.859 C 6.591 223.267,6.737 223.827,7.465 224.483 C 8.930 225.801,9.348 227.296,9.631 232.221 L 9.896 236.824 11.012 234.983 C 11.626 233.970,12.178 233.072,12.240 232.988 C 12.454 232.694,16.454 234.652,16.808 235.224 C 17.028 235.580,16.770 236.096,16.134 236.576 C 15.120 237.341,15.113 237.423,15.651 241.922 C 16.758 251.176,16.501 250.639,21.680 254.482 C 33.778 263.461,34.162 262.018,24.234 244.879 C 19.392 236.520,18.056 231.947,19.328 228.091 C 19.852 226.505,19.808 226.303,18.691 225.137 C 17.266 223.650,17.094 220.864,18.177 216.801 C 20.405 208.435,19.044 202.992,14.724 202.992 C 12.614 202.992,10.326 201.281,9.367 198.986 C 8.679 197.337,8.646 197.325,6.804 197.998 M207.693 199.309 C 207.872 200.528,207.717 200.753,206.364 201.242 C 205.053 201.716,204.177 202.992,205.163 202.992 C 205.469 202.992,209.491 201.569,209.808 201.349 C 209.886 201.295,209.638 200.503,209.256 199.589 C 208.402 197.545,207.408 197.367,207.693 199.309 M301.496 199.668 C 301.496 199.864,301.934 200.400,302.469 200.858 C 303.553 201.787,304.578 201.268,304.103 200.031 C 303.827 199.312,301.496 198.987,301.496 199.668 M25.207 200.617 C 22.328 202.359,23.229 203.647,27.130 203.365 C 30.114 203.149,31.037 202.659,30.600 201.520 C 29.962 199.858,27.219 199.399,25.207 200.617 M300.345 203.254 C 300.092 203.324,296.157 204.412,291.600 205.671 C 287.043 206.931,282.486 208.148,281.473 208.377 C 279.248 208.880,279.223 209.198,280.940 215.190 C 283.073 222.630,285.386 231.069,289.056 244.798 C 293.242 260.457,292.488 258.874,295.321 257.961 C 296.565 257.560,298.308 257.065,299.194 256.860 C 300.081 256.655,303.192 255.869,306.108 255.114 C 309.025 254.359,312.302 253.591,313.390 253.407 C 315.956 252.974,316.028 252.662,314.601 248.145 C 313.599 244.973,313.272 244.401,312.626 244.682 C 312.201 244.867,309.678 245.591,307.020 246.290 C 304.361 246.989,301.588 247.791,300.857 248.074 C 300.125 248.356,299.485 248.530,299.434 248.459 C 299.151 248.068,295.439 235.531,295.328 234.591 C 295.276 234.152,299.027 232.898,299.369 233.239 C 299.489 233.359,300.793 233.096,302.267 232.655 C 303.742 232.214,305.543 231.890,306.270 231.934 C 307.487 232.008,307.569 231.913,307.310 230.737 C 307.155 230.034,306.823 228.470,306.573 227.260 C 305.829 223.665,304.794 222.440,303.544 223.678 C 303.304 223.917,300.877 224.717,298.152 225.457 L 293.196 226.801 292.944 225.599 C 292.468 223.333,290.526 215.651,290.254 214.960 C 289.977 214.255,296.662 212.393,301.364 211.865 C 303.611 211.613,304.087 210.790,303.409 208.332 C 303.167 207.455,303.067 206.638,303.187 206.518 C 303.920 205.785,301.451 202.950,300.345 203.254 M177.950 210.106 C 177.620 211.353,177.702 211.369,180.129 210.542 C 182.835 209.620,182.876 209.075,180.234 209.149 C 178.620 209.194,178.139 209.396,177.950 210.106 M267.664 210.206 C 267.158 210.323,265.382 210.836,263.717 211.347 L 260.691 212.275 261.202 214.286 C 261.482 215.391,261.860 216.444,262.041 216.625 C 262.222 216.806,262.371 217.457,262.371 218.072 C 262.371 218.687,262.674 219.740,263.044 220.412 C 263.808 221.796,266.075 230.093,266.288 232.282 C 266.436 233.808,265.274 234.753,263.247 234.753 C 262.740 234.753,261.714 235.069,260.967 235.455 C 259.656 236.133,259.608 236.121,259.594 235.110 C 259.585 234.534,259.161 232.923,258.650 231.530 C 258.139 230.138,257.631 228.421,257.521 227.716 C 257.411 227.010,257.111 226.040,256.854 225.560 C 256.597 225.079,256.387 224.145,256.387 223.483 C 256.387 222.821,256.094 221.712,255.736 221.020 C 255.378 220.328,254.945 218.940,254.775 217.936 C 254.152 214.268,254.242 214.360,251.621 214.707 C 249.230 215.023,245.651 216.360,245.230 217.094 C 245.105 217.313,246.021 221.013,247.266 225.316 C 248.511 229.620,250.213 235.636,251.049 238.684 C 251.885 241.733,252.784 244.633,253.048 245.128 C 253.311 245.624,254.366 248.930,255.392 252.474 C 257.200 258.719,257.667 260.247,258.733 263.406 C 259.010 264.229,259.380 265.524,259.554 266.283 C 259.974 268.111,261.239 268.230,265.362 266.826 L 268.585 265.730 268.544 263.935 C 268.521 262.948,267.031 257.894,265.232 252.704 C 263.416 247.466,262.136 243.092,262.355 242.872 C 262.703 242.522,267.059 241.285,268.761 241.053 C 269.363 240.971,271.577 246.438,271.577 248.006 C 271.577 248.362,271.868 249.305,272.225 250.103 C 272.582 250.901,272.986 252.071,273.123 252.704 C 275.556 263.919,275.615 263.985,281.787 262.320 C 286.233 261.120,286.371 263.229,280.741 246.260 C 279.691 243.096,278.159 238.124,277.337 235.213 C 269.819 208.611,270.209 209.619,267.664 210.206 M26.873 212.181 C 24.793 213.040,25.385 218.011,27.663 218.811 C 29.925 219.605,32.355 218.787,32.010 217.347 C 30.991 213.090,29.152 211.240,26.873 212.181 M239.816 212.573 C 239.816 213.168,242.124 214.647,242.486 214.284 C 242.981 213.790,241.844 212.436,240.805 212.281 C 240.261 212.200,239.816 212.332,239.816 212.573 M240.526 216.309 C 240.380 216.544,240.782 217.300,241.419 217.987 C 242.588 219.248,242.832 218.947,242.288 216.916 C 242.006 215.867,241.011 215.524,240.526 216.309 M238.205 218.589 C 237.699 218.762,236.766 219.141,236.133 219.430 C 235.501 219.719,232.704 220.569,229.919 221.320 C 217.571 224.649,212.002 226.364,211.826 226.892 C 211.673 227.352,212.509 231.093,213.340 233.662 C 213.499 234.155,217.254 233.438,221.725 232.062 C 223.444 231.532,223.464 231.575,225.993 241.427 C 226.773 244.465,227.832 248.504,228.347 250.403 C 228.861 252.301,229.784 255.719,230.399 257.998 C 231.013 260.276,232.030 263.985,232.659 266.240 C 233.288 268.495,233.940 271.550,234.107 273.030 C 234.305 274.782,234.621 275.719,235.013 275.719 C 235.906 275.719,243.110 273.960,243.398 273.671 C 243.781 273.289,242.571 266.916,241.822 265.366 C 241.456 264.608,240.761 262.181,240.279 259.971 C 239.797 257.761,239.184 255.545,238.917 255.047 C 238.503 254.272,237.864 251.822,236.748 246.720 C 236.610 246.087,236.005 243.913,235.405 241.887 C 234.805 239.862,234.244 237.791,234.158 237.284 C 234.072 236.778,233.510 234.867,232.909 233.037 C 232.308 231.207,231.930 229.597,232.068 229.458 C 232.587 228.940,238.948 227.388,240.554 227.388 C 242.440 227.388,242.424 227.582,240.969 222.555 C 240.529 221.036,240.149 219.430,240.124 218.987 C 240.077 218.142,239.723 218.069,238.205 218.589 M309.321 221.430 C 309.321 222.944,310.436 226.007,310.987 226.007 C 311.670 226.007,311.854 225.284,311.263 224.918 C 311.065 224.796,310.852 224.030,310.790 223.216 C 310.643 221.281,309.321 219.674,309.321 221.430 M305.933 222.555 C 306.078 222.934,306.382 223.245,306.609 223.245 C 306.835 223.245,307.020 222.934,307.020 222.555 C 307.020 222.175,306.715 221.864,306.344 221.864 C 305.932 221.864,305.771 222.134,305.933 222.555 M205.293 226.468 C 205.293 226.757,205.589 227.289,205.951 227.651 C 206.929 228.629,207.679 228.447,207.512 227.273 C 207.360 226.200,205.293 225.451,205.293 226.468 M310.945 227.368 C 310.565 227.982,311.919 231.070,312.569 231.070 C 312.888 231.070,312.977 230.748,312.790 230.265 C 312.619 229.822,312.364 228.890,312.223 228.193 C 311.964 226.908,311.438 226.569,310.945 227.368 M194.246 232.693 C 189.563 234.051,185.290 235.174,184.751 235.188 C 182.754 235.239,182.636 236.196,184.083 240.624 C 184.829 242.907,185.580 245.575,185.753 246.553 C 185.926 247.531,186.881 251.128,187.875 254.545 C 189.700 260.816,196.087 284.614,196.087 285.142 C 196.087 285.515,199.292 284.932,200.402 284.358 C 200.877 284.112,201.705 283.842,202.244 283.759 C 203.537 283.557,218.815 279.720,219.072 279.531 C 219.333 279.341,218.248 275.049,217.383 272.851 C 216.806 271.384,216.583 271.201,215.847 271.594 C 215.037 272.028,204.911 274.774,203.480 274.948 C 203.021 275.004,202.412 273.684,201.500 270.656 C 200.776 268.251,199.861 265.297,199.468 264.093 C 198.526 261.202,198.814 260.654,201.469 260.292 C 202.686 260.125,204.822 259.701,206.214 259.349 C 207.606 258.997,209.264 258.652,209.896 258.583 C 211.193 258.442,211.193 258.422,210.022 253.992 C 209.105 250.527,208.423 249.525,207.499 250.290 C 207.172 250.561,204.937 251.327,202.532 251.993 C 200.127 252.660,197.796 253.405,197.353 253.649 C 196.697 254.011,196.548 253.908,196.548 253.092 C 196.548 252.541,195.916 249.739,195.144 246.866 C 193.491 240.713,193.396 241.000,197.348 240.262 C 199.060 239.942,201.263 239.400,202.244 239.058 C 203.225 238.715,204.598 238.435,205.295 238.435 C 206.643 238.435,207.860 237.395,207.394 236.641 C 207.239 236.391,206.891 234.984,206.619 233.513 C 205.846 229.330,205.844 229.329,194.246 232.693 M369.181 236.706 C 368.859 237.783,367.997 239.850,367.266 241.299 C 365.653 244.497,365.656 244.324,367.204 244.510 L 368.470 244.662 366.936 245.492 C 365.959 246.021,365.495 246.562,365.656 246.982 C 365.823 247.416,365.600 247.641,365.003 247.641 C 364.367 247.641,364.097 247.953,364.097 248.689 C 364.097 251.954,355.269 266.322,350.900 270.168 L 348.723 272.084 349.607 273.726 C 350.543 275.464,352.931 277.550,354.014 277.576 C 354.436 277.586,354.298 277.893,353.615 278.463 C 351.050 280.603,350.869 283.007,352.900 287.964 C 353.907 290.423,354.203 290.771,355.276 290.756 C 355.950 290.746,357.026 290.892,357.667 291.079 C 358.812 291.413,358.833 291.374,358.869 288.865 C 358.911 285.978,361.209 280.715,365.333 274.067 C 367.106 271.208,367.693 269.785,367.894 267.860 C 368.042 266.434,369.036 263.290,370.212 260.529 C 374.203 251.160,374.467 247.455,371.708 239.534 C 369.861 234.230,369.907 234.282,369.181 236.706 M174.225 235.845 C 173.388 236.458,173.391 236.487,174.325 236.783 C 174.855 236.951,175.405 237.392,175.547 237.762 C 176.076 239.141,177.215 238.500,177.215 236.824 C 177.215 235.024,175.925 234.602,174.225 235.845 M227.473 239.830 L 227.077 240.899 226.815 239.896 C 226.671 239.345,226.741 239.010,226.970 239.152 C 227.200 239.294,227.388 239.156,227.388 238.846 C 227.388 238.535,227.496 238.390,227.628 238.522 C 227.760 238.654,227.690 239.242,227.473 239.830 M164.327 240.916 C 153.291 243.370,151.815 250.365,158.344 269.275 C 158.824 270.667,159.421 272.635,159.669 273.648 C 161.652 281.737,165.020 288.715,167.878 290.657 C 171.523 293.134,179.942 291.292,179.984 288.009 C 179.988 287.705,180.201 287.146,180.458 286.766 C 180.809 286.248,180.856 286.375,180.647 287.279 C 180.270 288.911,181.034 289.120,184.625 288.366 C 189.621 287.318,190.245 286.421,188.401 282.946 C 187.971 282.136,187.670 281.129,187.733 280.708 C 187.795 280.288,187.629 279.809,187.364 279.645 C 187.099 279.481,186.877 278.893,186.872 278.339 C 186.867 277.784,186.246 275.580,185.491 273.440 C 184.737 271.300,184.120 269.163,184.120 268.692 C 184.120 268.220,183.875 267.381,183.576 266.828 C 183.277 266.275,182.978 265.339,182.912 264.748 C 182.847 264.157,182.470 263.180,182.076 262.578 C 181.681 261.975,181.358 261.164,181.358 260.776 C 181.358 259.862,180.977 259.885,178.540 260.947 C 177.431 261.431,174.816 262.282,172.727 262.839 C 168.436 263.984,168.414 264.022,169.687 268.038 C 170.702 271.241,170.793 271.301,173.309 270.447 C 174.512 270.039,175.536 269.763,175.584 269.835 C 175.912 270.329,178.100 278.525,178.206 279.661 C 178.455 282.327,174.918 284.996,173.292 283.369 C 172.927 283.004,172.424 282.636,172.174 282.550 C 171.925 282.464,171.108 280.736,170.360 278.711 C 169.612 276.686,168.583 273.930,168.075 272.587 C 167.566 271.244,167.173 269.794,167.202 269.365 C 167.230 268.936,166.929 267.549,166.531 266.283 C 166.134 265.017,165.459 262.739,165.031 261.220 C 164.603 259.701,164.082 257.940,163.872 257.307 C 161.837 251.164,162.540 248.101,165.985 248.101 C 167.844 248.101,168.993 249.450,170.385 253.266 C 171.411 256.080,172.188 256.844,173.193 256.027 C 173.507 255.772,174.590 255.632,175.600 255.716 C 177.682 255.888,179.059 254.979,179.051 253.438 C 179.044 252.077,177.797 248.125,176.981 246.879 C 176.603 246.303,176.295 245.560,176.295 245.228 C 176.295 243.716,170.350 240.227,167.924 240.315 C 167.338 240.336,165.719 240.607,164.327 240.916 M143.153 243.091 L 141.542 243.965 142.980 243.858 C 143.772 243.799,144.755 244.030,145.167 244.371 C 145.830 244.922,145.915 244.829,145.915 243.555 C 145.915 241.906,145.473 241.832,143.153 243.091 M235.090 246.670 C 235.051 247.187,234.778 247.445,234.417 247.306 C 233.953 247.129,233.934 246.922,234.337 246.436 C 235.038 245.592,235.168 245.632,235.090 246.670 M115.535 247.078 C 115.535 247.559,117.271 249.022,117.842 249.022 C 118.472 249.022,118.412 247.940,117.745 247.273 C 117.131 246.659,115.535 246.518,115.535 247.078 M233.074 247.703 C 233.740 247.834,233.624 247.984,232.547 248.388 C 230.714 249.075,229.515 248.393,230.813 247.402 C 231.304 247.027,231.822 246.904,231.964 247.127 C 232.105 247.351,232.605 247.610,233.074 247.703 M132.796 248.462 C 121.324 251.688,120.458 256.347,127.292 278.082 C 127.661 279.256,127.963 280.553,127.963 280.966 C 127.963 281.378,128.161 282.075,128.403 282.515 C 128.645 282.954,129.516 285.696,130.338 288.608 C 132.399 295.900,133.897 298.197,137.840 300.106 C 142.966 302.587,152.473 300.120,154.660 295.742 C 155.039 294.983,155.538 294.225,155.769 294.058 C 157.667 292.689,156.121 282.600,152.352 271.767 C 151.640 269.720,150.958 267.441,150.836 266.704 C 150.714 265.966,150.265 264.430,149.839 263.291 C 149.412 262.152,148.865 260.245,148.623 259.053 C 148.380 257.860,147.880 256.307,147.511 255.600 C 147.143 254.894,146.840 254.089,146.838 253.812 C 146.833 252.961,143.018 249.416,141.312 248.676 C 139.179 247.752,135.638 247.663,132.796 248.462 M213.027 247.886 C 212.674 248.239,213.504 252.353,214.036 252.885 C 214.885 253.734,215.040 252.770,214.467 250.208 C 213.928 247.800,213.616 247.297,213.027 247.886 M209.436 249.252 C 209.436 249.632,209.740 249.942,210.112 249.942 C 210.524 249.942,210.685 249.673,210.523 249.252 C 210.377 248.872,210.073 248.562,209.847 248.562 C 209.621 248.562,209.436 248.872,209.436 249.252 M116.223 250.867 C 116.066 251.122,116.242 251.636,116.615 252.009 C 116.989 252.382,117.388 252.950,117.502 253.271 C 117.904 254.396,118.300 253.297,118.012 251.857 C 117.729 250.443,116.803 249.929,116.223 250.867 M113.924 253.111 C 113.418 253.285,112.486 253.663,111.853 253.952 C 111.220 254.241,108.423 255.092,105.639 255.842 C 91.451 259.667,87.685 260.868,87.539 261.612 C 87.418 262.226,88.202 265.625,89.054 268.185 C 89.218 268.678,92.965 267.963,97.457 266.581 C 99.261 266.025,98.403 263.523,104.857 288.147 C 105.620 291.059,106.871 295.545,107.637 298.117 C 108.404 300.689,109.287 304.469,109.601 306.518 C 109.967 308.911,110.379 310.242,110.752 310.242 C 111.606 310.242,118.829 308.482,119.104 308.207 C 119.434 307.877,117.799 299.686,117.347 299.406 C 117.142 299.280,116.635 297.575,116.219 295.618 C 115.803 293.661,115.160 291.258,114.790 290.277 C 114.211 288.745,113.525 286.076,112.467 281.243 C 112.329 280.610,111.725 278.435,111.125 276.410 C 110.525 274.384,109.971 272.313,109.894 271.807 C 109.817 271.300,109.628 270.679,109.474 270.426 C 108.966 269.594,107.576 264.192,107.810 263.958 C 108.302 263.466,114.692 261.910,116.220 261.910 C 118.044 261.910,118.100 261.724,117.169 258.750 C 116.802 257.577,116.251 255.736,115.945 254.661 C 115.638 253.585,115.266 252.725,115.116 252.750 C 114.967 252.775,114.430 252.938,113.924 253.111 M214.499 255.236 C 214.499 255.869,214.707 256.387,214.960 256.387 C 215.213 256.387,215.420 256.697,215.420 257.077 C 215.420 257.457,215.631 257.768,215.889 257.768 C 216.305 257.768,216.200 256.522,215.626 254.661 C 215.311 253.637,214.499 254.051,214.499 255.236 M136.880 255.920 C 137.607 256.295,138.300 256.916,138.422 257.300 C 138.543 257.684,139.132 259.241,139.731 260.759 C 140.330 262.278,141.039 264.453,141.306 265.593 C 141.574 266.732,142.296 269.321,142.912 271.346 C 143.528 273.372,144.273 275.961,144.569 277.100 C 144.865 278.239,145.581 280.725,146.160 282.624 C 146.739 284.522,147.318 286.801,147.445 287.687 C 147.573 288.573,147.811 289.635,147.974 290.046 C 148.385 291.083,146.495 293.129,144.647 293.647 C 142.807 294.164,140.676 292.637,139.982 290.304 C 139.741 289.498,139.330 288.216,139.068 287.457 C 138.806 286.697,137.940 283.901,137.146 281.243 C 136.351 278.585,135.528 275.995,135.317 275.489 C 135.106 274.983,134.797 273.740,134.630 272.727 C 134.462 271.715,133.609 268.194,132.734 264.903 C 131.859 261.613,131.260 258.455,131.403 257.885 C 131.665 256.839,134.902 254.420,135.328 254.951 C 135.455 255.108,136.153 255.544,136.880 255.920 M130.474 266.671 C 131.268 267.252,131.254 267.285,130.243 267.211 C 129.651 267.167,129.086 266.889,128.987 266.592 C 128.747 265.873,129.432 265.909,130.474 266.671 M33.479 268.601 C 31.795 269.745,31.761 269.828,31.761 272.715 C 31.761 275.346,31.620 275.800,30.447 276.956 L 29.132 278.251 30.188 281.356 C 34.474 293.959,46.178 310.060,56.129 317.042 C 57.790 318.207,59.234 319.224,59.338 319.302 C 59.688 319.563,58.484 321.749,57.990 321.749 C 57.166 321.749,47.071 314.838,44.784 312.708 C 43.599 311.605,42.295 310.702,41.885 310.702 C 41.475 310.702,40.687 310.280,40.133 309.763 C 39.579 309.247,39.125 308.999,39.125 309.213 C 39.125 309.866,42.172 318.514,43.947 322.900 C 44.869 325.178,45.780 327.440,45.971 327.925 C 46.280 328.707,46.441 328.612,47.375 327.100 C 48.393 325.454,48.471 325.417,49.516 326.102 C 50.485 326.737,53.395 327.120,53.395 326.612 C 53.395 326.502,53.199 325.897,52.959 325.267 C 52.253 323.409,53.351 322.942,55.137 324.340 C 56.821 325.658,57.062 327.069,55.677 327.509 C 53.385 328.236,57.724 335.364,62.960 339.475 C 65.929 341.805,66.283 341.926,66.283 340.610 C 66.283 340.017,66.744 339.502,67.549 339.195 C 68.746 338.738,68.768 338.677,67.962 338.085 C 67.173 337.506,67.230 337.436,68.719 337.157 C 70.691 336.787,72.027 337.442,72.953 339.231 C 73.922 341.107,73.858 341.223,72.037 340.882 C 70.143 340.527,69.750 341.523,71.461 342.343 C 74.652 343.872,77.330 343.191,77.330 340.852 C 77.330 338.564,78.196 336.879,79.122 337.367 C 79.529 337.581,80.723 337.767,81.775 337.779 C 85.039 337.816,87.056 338.625,98.126 344.337 C 114.613 352.843,119.878 355.367,121.781 355.675 L 123.528 355.959 122.564 354.605 C 121.667 353.345,121.696 352.551,122.686 351.298 C 122.747 351.221,124.490 351.810,126.558 352.608 C 130.587 354.161,130.921 355.070,128.006 356.555 C 127.105 357.015,127.428 357.204,131.026 358.326 C 133.241 359.016,137.424 360.498,140.321 361.617 C 143.218 362.737,147.345 364.162,149.493 364.785 L 153.397 365.917 154.737 364.963 C 155.575 364.366,155.994 363.725,155.856 363.248 C 155.735 362.828,155.792 361.067,155.982 359.333 C 156.573 353.959,156.380 353.510,153.488 353.510 C 148.285 353.510,140.243 351.139,128.423 346.120 C 124.753 344.562,120.132 342.709,118.155 342.004 C 113.778 340.442,113.969 340.639,115.253 339.028 L 116.311 337.702 118.234 338.471 C 120.238 339.273,122.509 339.478,123.078 338.909 C 123.260 338.727,124.123 338.639,124.996 338.714 C 130.882 339.221,119.490 330.613,109.600 327.080 C 102.542 324.558,99.802 324.905,98.914 328.431 L 98.423 330.381 95.357 329.465 C 92.357 328.569,90.120 327.598,89.111 326.753 C 88.834 326.521,86.629 325.042,84.210 323.465 C 75.149 317.559,64.559 308.520,62.867 305.248 C 62.270 304.093,61.825 303.797,60.687 303.797 C 59.314 303.797,59.268 303.735,59.517 302.204 C 59.766 300.666,59.732 300.620,58.500 300.866 C 57.316 301.103,57.237 301.027,57.412 299.813 C 57.566 298.732,57.170 298.062,55.139 295.972 C 53.786 294.580,51.192 291.162,49.374 288.377 C 44.476 280.874,44.069 280.474,42.065 281.199 C 39.817 282.012,39.694 281.638,41.238 278.675 L 42.578 276.103 39.967 273.311 C 38.531 271.776,36.982 269.825,36.525 268.977 C 35.530 267.129,35.627 267.141,33.479 268.601 M326.994 280.233 C 326.461 280.915,325.705 282.094,325.313 282.854 C 323.934 285.529,318.224 290.565,317.194 290.014 C 316.193 289.478,313.945 289.372,312.811 289.808 C 312.283 290.010,312.083 290.712,312.083 292.358 C 312.083 296.336,308.415 301.075,303.475 303.479 C 302.267 304.066,301.333 304.921,300.987 305.755 C 300.683 306.490,299.905 307.437,299.258 307.861 C 298.610 308.284,297.463 309.194,296.708 309.883 L 295.336 311.136 297.020 311.839 C 300.545 313.312,302.244 312.848,306.664 309.205 C 308.769 307.470,308.922 307.421,311.338 307.723 L 313.836 308.035 314.617 306.388 C 315.047 305.482,316.880 303.353,318.689 301.658 C 322.472 298.113,323.091 297.213,323.114 295.223 C 323.133 293.556,323.817 291.787,326.626 286.144 C 329.245 280.882,329.484 277.046,326.994 280.233 M108.793 282.225 C 109.450 282.355,109.316 282.517,108.215 282.930 C 107.125 283.339,106.860 283.339,107.105 282.930 C 107.282 282.635,107.076 282.678,106.648 283.025 C 105.978 283.568,105.869 283.555,105.869 282.933 C 105.869 282.116,107.343 281.114,107.705 281.685 C 107.834 281.890,108.324 282.133,108.793 282.225 M342.156 282.509 C 341.182 285.332,340.009 287.429,338.579 288.901 C 337.677 289.830,336.939 290.857,336.939 291.184 C 336.939 292.154,332.300 296.874,325.694 302.627 C 322.288 305.593,319.167 308.530,318.759 309.153 C 318.213 309.986,317.765 310.208,317.072 309.988 C 315.473 309.480,312.114 310.691,311.399 312.034 C 311.047 312.694,308.261 315.789,305.207 318.912 C 302.153 322.035,299.655 324.778,299.655 325.006 C 299.655 327.101,291.275 330.289,283.465 331.167 C 276.268 331.975,272.037 332.768,272.037 333.308 C 272.037 333.520,271.443 334.000,270.718 334.375 C 269.608 334.950,269.349 335.436,269.081 337.455 C 268.342 343.028,260.777 346.457,240.276 350.513 C 227.925 352.957,222.172 354.317,218.954 355.555 C 211.396 358.462,191.408 358.512,186.421 355.636 C 183.945 354.208,182.932 354.129,182.298 355.314 C 181.800 356.244,180.052 356.946,176.985 357.447 C 173.566 358.005,170.376 359.076,168.653 360.246 C 167.318 361.151,166.598 361.345,165.402 361.121 C 163.536 360.771,163.364 361.498,165.008 362.790 C 166.066 363.623,166.128 363.887,165.859 366.459 L 165.569 369.230 167.167 368.563 C 168.045 368.196,169.351 367.588,170.069 367.212 C 171.060 366.693,171.827 366.630,173.259 366.953 C 182.047 368.935,212.324 371.490,205.524 369.675 L 204.143 369.307 205.293 368.841 C 207.712 367.860,210.778 367.740,211.630 368.592 C 212.221 369.183,213.018 369.353,214.706 369.246 C 217.856 369.047,218.884 369.757,220.533 373.268 C 222.007 376.405,223.072 377.906,223.826 377.906 C 224.067 377.906,224.150 377.608,224.011 377.245 C 223.404 375.665,226.580 373.206,229.919 372.670 L 231.761 372.375 230.150 373.263 C 228.217 374.328,229.085 374.977,231.843 374.529 C 233.369 374.282,233.429 374.314,232.628 374.945 C 231.838 375.568,231.964 375.608,234.062 375.387 C 235.328 375.254,236.105 375.266,235.788 375.413 C 234.820 375.864,235.148 376.525,236.341 376.525 C 236.961 376.525,237.645 376.839,237.860 377.223 C 238.184 377.802,238.509 377.832,239.761 377.396 C 240.921 376.991,241.518 377.001,242.336 377.439 C 243.116 377.857,243.814 377.883,244.946 377.537 C 245.795 377.277,247.629 376.930,249.022 376.765 C 255.402 376.007,257.768 374.880,257.768 372.594 C 257.768 371.170,257.756 371.170,250.306 372.799 C 246.941 373.535,243.360 374.262,242.348 374.414 L 240.506 374.692 241.979 374.030 C 242.788 373.665,245.940 372.687,248.983 371.857 C 254.169 370.441,254.498 370.283,254.257 369.322 C 253.966 368.162,254.645 367.899,261.172 366.651 C 263.171 366.269,264.865 365.899,264.935 365.828 C 265.347 365.417,260.767 361.291,260.123 361.493 C 259.714 361.621,257.332 362.588,254.830 363.641 C 249.676 365.811,245.523 366.520,244.684 365.373 C 244.399 364.983,243.757 364.585,243.257 364.487 C 242.651 364.369,244.406 363.266,248.505 361.188 C 253.138 358.839,254.962 358.131,255.870 358.330 C 256.682 358.508,258.614 357.989,261.771 356.743 C 264.353 355.724,266.777 354.891,267.157 354.891 C 267.537 354.891,268.014 354.621,268.216 354.292 C 269.023 352.982,284.437 345.621,287.687 344.995 C 289.674 344.611,297.744 340.773,304.437 337.027 C 307.194 335.485,310.055 334.089,310.795 333.927 C 311.654 333.738,312.330 333.188,312.661 332.408 C 315.224 326.376,328.555 313.823,336.054 310.381 C 337.559 309.690,338.714 308.910,338.620 308.647 C 338.525 308.385,338.937 306.799,339.535 305.123 C 341.081 300.785,341.014 299.757,339.198 300.023 L 337.776 300.232 338.461 298.907 C 338.838 298.178,340.335 295.925,341.789 293.900 C 345.067 289.334,346.145 286.877,346.145 283.966 L 346.145 281.703 344.289 281.703 C 342.935 281.703,342.359 281.921,342.156 282.509 M109.814 287.201 C 109.814 287.878,109.670 287.977,109.222 287.605 C 108.897 287.335,108.631 286.932,108.631 286.710 C 108.631 286.488,108.897 286.306,109.222 286.306 C 109.548 286.306,109.814 286.709,109.814 287.201 M161.667 295.538 C 161.849 296.777,161.691 297.020,160.338 297.586 C 158.795 298.230,158.255 299.194,159.437 299.194 C 159.978 299.194,163.396 297.937,163.757 297.606 C 163.824 297.545,163.562 296.738,163.176 295.813 C 162.313 293.748,161.379 293.578,161.667 295.538 M135.687 305.433 C 135.561 305.559,134.704 305.690,133.782 305.725 C 132.463 305.774,132.106 305.974,132.106 306.665 C 132.106 307.362,132.319 307.477,133.142 307.224 C 135.582 306.474,136.875 305.796,136.411 305.509 C 136.139 305.341,135.814 305.307,135.687 305.433 M109.202 357.045 C 108.317 357.662,107.863 357.686,106.149 357.206 C 103.598 356.492,100.866 357.703,102.604 358.777 C 102.833 358.918,102.918 359.426,102.793 359.904 C 102.537 360.882,103.676 361.344,111.392 363.393 C 120.022 365.685,121.292 364.375,114.721 359.959 C 113.134 358.893,111.625 357.627,111.368 357.146 C 110.811 356.105,110.566 356.094,109.202 357.045 " stroke="none" fill="#b3c5ef" fill-rule="evenodd"></path></g></svg>